<svg aria-hidden="true" style="position: absolute; width: 0; height: 0; overflow: hidden;" version="1.1" xmlns="http://www.w3.org/2000/svg" xmlns:xlink="http://www.w3.org/1999/xlink">
<defs>
<symbol id="business" viewBox="0 0 32 32">
<path fill="#1bc55f" style="fill: var(--color1, #1bc55f)" d="M21.72 1.906l-3.855 4.469 3.762 17.813c0.124 0.333 0.207 0.568 0.249 0.703s0.047 0.286 0.016 0.453c-0.031 0.167-0.119 0.323-0.264 0.469l-4.85 5.844c-0.207 0.229-0.471 0.344-0.793 0.344s-0.596-0.115-0.824-0.344l-4.819-5.844c-0.207-0.271-0.306-0.495-0.295-0.672s0.109-0.495 0.295-0.953l3.762-17.844-3.824-4.438c-0.269-0.25-0.337-0.63-0.202-1.141s0.43-0.766 0.886-0.766h10.104c0.456 0 0.741 0.255 0.855 0.766s0.047 0.891-0.202 1.141z"></path>
</symbol>
<symbol id="bx_bxl-telegram" viewBox="0 0 32 32">
<path fill="#fff" style="fill: var(--color2, #fff)" d="M27.553 4.956l-23.64 9.116c-1.613 0.648-1.604 1.548-0.296 1.949l6.069 1.893 14.043-8.86c0.664-0.404 1.271-0.187 0.772 0.256l-11.377 10.269-0.419 6.256c0.613 0 0.884-0.281 1.228-0.613l2.948-2.867 6.132 4.529c1.131 0.623 1.943 0.303 2.224-1.047l4.025-18.971c0.412-1.652-0.631-2.4-1.709-1.912z"></path>
</symbol>
<symbol id="calendar" viewBox="0 0 32 32">
<path fill="#1bc55f" style="fill: var(--color1, #1bc55f)" d="M24 6.4h4.8v24h-25.6v-24h4.8v-1.6c0-0.656 0.24-1.216 0.704-1.696 0.464-0.464 1.040-0.704 1.696-0.704s1.232 0.24 1.696 0.704c0.464 0.48 0.704 1.040 0.704 1.696v1.6h6.4v-1.6c0-0.656 0.24-1.216 0.704-1.696 0.464-0.464 1.040-0.704 1.696-0.704s1.232 0.24 1.696 0.704c0.464 0.48 0.704 1.040 0.704 1.696v1.6zM9.6 4.8v4c-0.002 0.106 0.017 0.211 0.057 0.308s0.098 0.187 0.173 0.262c0.075 0.075 0.164 0.134 0.262 0.173s0.203 0.059 0.308 0.057c0.106 0.002 0.211-0.017 0.308-0.057s0.187-0.098 0.262-0.173c0.075-0.075 0.133-0.164 0.173-0.262s0.059-0.203 0.057-0.308v-4c0-0.224-0.080-0.416-0.24-0.56-0.144-0.16-0.336-0.24-0.56-0.24s-0.416 0.080-0.56 0.24c-0.16 0.144-0.24 0.336-0.24 0.56zM20.8 4.8v4c0 0.224 0.080 0.416 0.224 0.576 0.16 0.144 0.352 0.224 0.576 0.224s0.416-0.080 0.576-0.224c0.144-0.16 0.224-0.352 0.224-0.576v-4c0.002-0.106-0.017-0.21-0.057-0.308s-0.098-0.187-0.173-0.262c-0.075-0.075-0.164-0.134-0.262-0.173s-0.203-0.059-0.308-0.057c-0.106-0.002-0.211 0.017-0.308 0.057s-0.187 0.098-0.262 0.173-0.134 0.164-0.173 0.262c-0.040 0.098-0.059 0.203-0.057 0.308zM27.2 28.8v-16h-22.4v16h22.4zM11.2 14.4v3.2h-3.2v-3.2h3.2zM14.4 14.4h3.2v3.2h-3.2v-3.2zM20.8 17.6v-3.2h3.2v3.2h-3.2zM11.2 19.2v3.2h-3.2v-3.2h3.2zM14.4 19.2h3.2v3.2h-3.2v-3.2zM20.8 22.4v-3.2h3.2v3.2h-3.2zM11.2 24v3.2h-3.2v-3.2h3.2zM17.6 27.2h-3.2v-3.2h3.2v3.2zM24 27.2h-3.2v-3.2h3.2v3.2z"></path>
</symbol>
<symbol id="fa-solid_tasks" viewBox="0 0 32 32">
<path fill="#fff" style="fill: var(--color2, #fff)" d="M8.726 2.219c-0.070-0.070-0.152-0.125-0.244-0.163s-0.189-0.057-0.288-0.057c-0.099 0-0.196 0.020-0.288 0.057s-0.174 0.093-0.244 0.163l-3.98 3.957-1.419-1.383c-0.070-0.070-0.152-0.125-0.244-0.163s-0.189-0.057-0.288-0.057c-0.099 0-0.196 0.019-0.288 0.057s-0.174 0.093-0.244 0.163l-0.981 0.982c-0.070 0.070-0.125 0.152-0.163 0.244s-0.057 0.189-0.057 0.288c0 0.099 0.019 0.196 0.057 0.288s0.093 0.174 0.163 0.244l2.974 2.963c0.148 0.141 0.345 0.22 0.55 0.22s0.402-0.079 0.55-0.22l0.974-0.976 4.513-4.512c0.141-0.141 0.22-0.331 0.221-0.53s-0.076-0.39-0.215-0.532l-1.062-1.031zM8.726 12.168c-0.070-0.070-0.152-0.125-0.244-0.163s-0.189-0.057-0.288-0.057c-0.099 0-0.196 0.019-0.288 0.057s-0.174 0.093-0.244 0.163l-3.98 3.982-1.419-1.381c-0.070-0.070-0.152-0.125-0.244-0.163s-0.189-0.057-0.288-0.057c-0.099 0-0.196 0.019-0.288 0.057s-0.174 0.093-0.244 0.163l-0.981 0.981c-0.070 0.070-0.125 0.153-0.163 0.244s-0.057 0.189-0.057 0.288c0 0.099 0.019 0.196 0.057 0.288s0.093 0.174 0.163 0.244l2.967 2.969c0.148 0.141 0.345 0.22 0.55 0.22s0.402-0.079 0.55-0.22l5.494-5.494c0.14-0.14 0.219-0.329 0.22-0.527s-0.076-0.388-0.215-0.529l-1.061-1.063zM4 23c-1.656 0-3.037 1.344-3.037 3s1.383 3 3.037 3c0.796 0 1.559-0.316 2.121-0.879s0.879-1.326 0.879-2.121-0.316-1.559-0.879-2.121c-0.563-0.563-1.326-0.879-2.121-0.879zM31 24h-18c-0.265 0-0.52 0.105-0.707 0.293s-0.293 0.442-0.293 0.707v2c0 0.265 0.105 0.52 0.293 0.707s0.442 0.293 0.707 0.293h18c0.265 0 0.52-0.105 0.707-0.293s0.293-0.442 0.293-0.707v-2c0-0.265-0.105-0.52-0.293-0.707s-0.442-0.293-0.707-0.293zM31 4h-18c-0.265 0-0.52 0.105-0.707 0.293s-0.293 0.442-0.293 0.707v2c0 0.265 0.105 0.52 0.293 0.707s0.442 0.293 0.707 0.293h18c0.265 0 0.52-0.105 0.707-0.293s0.293-0.442 0.293-0.707v-2c0-0.265-0.105-0.52-0.293-0.707s-0.442-0.293-0.707-0.293zM31 14h-18c-0.265 0-0.52 0.105-0.707 0.293s-0.293 0.442-0.293 0.707v2c0 0.265 0.105 0.52 0.293 0.707s0.442 0.293 0.707 0.293h18c0.265 0 0.52-0.105 0.707-0.293s0.293-0.442 0.293-0.707v-2c0-0.265-0.105-0.52-0.293-0.707s-0.442-0.293-0.707-0.293z"></path>
</symbol>
<symbol id="ic_outline-slow-motion-video" viewBox="0 0 32 32">
<path fill="#fff" style="fill: var(--color2, #fff)" d="M17.4 13.811l-4.067-3.053v12l8-6-3.933-2.947zM17.4 13.811l-4.067-3.053v12l8-6-3.933-2.947zM17.4 13.811l-4.067-3.053v12l8-6-3.933-2.947zM14.667 6.184v-2.693c-2.68 0.267-5.12 1.333-7.093 2.947l1.893 1.907c1.507-1.176 3.303-1.923 5.2-2.16zM7.587 10.224l-1.907-1.893c-1.66 2.022-2.685 4.49-2.947 7.093h2.693c0.24-1.947 1.013-3.72 2.16-5.2zM5.427 18.091h-2.693c0.267 2.68 1.333 5.12 2.947 7.093l1.907-1.907c-1.178-1.5-1.925-3.293-2.16-5.187zM7.573 27.078c2.023 1.658 4.491 2.683 7.093 2.947v-2.693c-1.897-0.237-3.693-0.984-5.2-2.16l-1.893 1.907zM29.333 16.758c0 6.88-5.227 12.56-11.933 13.267v-2.693c5.227-0.693 9.267-5.173 9.267-10.573s-4.040-9.88-9.267-10.573v-2.693c6.707 0.707 11.933 6.387 11.933 13.267z"></path>
</symbol>
<symbol id="laptop" viewBox="0 0 32 32">
<path fill="#1bc55f" style="fill: var(--color1, #1bc55f)" d="M5 6v13.563l-2.281 2.314c-0.457 0.455-0.715 1.072-0.719 1.717 0.003 0.637 0.258 1.247 0.708 1.698s1.061 0.705 1.698 0.708h23.188c0.637-0.003 1.247-0.258 1.698-0.708s0.705-1.061 0.708-1.698c-0.004-0.645-0.262-1.263-0.719-1.719l-2.281-2.313v-13.562h-22zM7 8h18v11h-18v-11zM16 9l-1.5 9h1.5l1.5-9h-1.5zM12.086 11l-1.719 2.068-0.367 0.432 0.367 0.432 1.719 2.068 1.086-0.863-1.362-1.637 1.36-1.637-1.084-0.863zM19.914 11l-1.086 0.863 1.362 1.637-1.36 1.637 1.085 0.863 1.719-2.068 0.366-0.432-0.367-0.432-1.719-2.068zM6.437 21h19.125l2.313 2.281c0.079 0.085 0.124 0.197 0.125 0.313 0.003 0.054-0.006 0.108-0.025 0.159s-0.049 0.096-0.087 0.135c-0.038 0.038-0.084 0.068-0.135 0.087s-0.105 0.028-0.159 0.025h-23.188c-0.054 0.003-0.108-0.006-0.159-0.025s-0.096-0.049-0.135-0.087c-0.038-0.038-0.068-0.084-0.087-0.135s-0.028-0.105-0.025-0.159c0-0.11 0.047-0.234 0.125-0.313l2.312-2.281z"></path>
</symbol>
<symbol id="location" viewBox="0 0 32 32">
<path fill="#1bc55f" style="fill: var(--color1, #1bc55f)" d="M16 3.2c-5.296 0-9.6 4.304-9.6 9.6 0 3.232 1.872 5.936 4.048 7.824 0.688 0.592 1.888 1.536 2.96 2.928 1.184 1.552 2.256 3.216 2.592 4.336 0.336-1.12 1.408-2.784 2.592-4.336 1.072-1.392 2.272-2.336 2.96-2.928 2.176-1.888 4.048-4.592 4.048-7.824 0-5.296-4.304-9.6-9.6-9.6zM16 7.296c0.723 0 1.439 0.142 2.106 0.419s1.275 0.682 1.786 1.193c0.511 0.511 0.917 1.118 1.193 1.786s0.419 1.383 0.419 2.106c0 0.723-0.142 1.438-0.419 2.106s-0.682 1.275-1.193 1.786c-0.511 0.511-1.118 0.917-1.786 1.193s-1.384 0.419-2.106 0.419c-1.46 0-2.86-0.58-3.892-1.612s-1.612-2.432-1.612-3.892c0-1.46 0.58-2.86 1.612-3.892s2.432-1.612 3.892-1.612z"></path>
</symbol>
<symbol id="ok" viewBox="0 0 32 32">
<path fill="#1bc55f" style="fill: var(--color1, #1bc55f)" d="M26.78 2.644l-16.305 16.305-5.288-5.288-5.186 5.186 10.508 10.509 21.492-21.492-5.22-5.22z"></path>
</symbol>
<symbol id="ri_chat-heart-line" viewBox="0 0 32 32">
<path fill="#fff" style="fill: var(--color2, #fff)" d="M8.607 25.333l-5.94 4.667v-24.667c0-0.354 0.14-0.693 0.391-0.943s0.589-0.391 0.943-0.391h24c0.354 0 0.693 0.14 0.943 0.391s0.39 0.589 0.39 0.943v18.667c0 0.354-0.14 0.693-0.39 0.943s-0.589 0.39-0.943 0.39h-19.393zM5.333 24.513l2.351-1.847h18.983v-16h-21.333v17.847zM16.024 19.6l-4.479-4.48c-0.563-0.563-0.879-1.326-0.879-2.121s0.316-1.559 0.879-2.121c0.563-0.563 1.326-0.879 2.121-0.879s1.559 0.316 2.121 0.879l0.236 0.236 0.236-0.236c0.279-0.279 0.609-0.5 0.973-0.65s0.754-0.228 1.148-0.228 0.784 0.078 1.148 0.228c0.364 0.151 0.695 0.372 0.973 0.65s0.5 0.609 0.65 0.973c0.151 0.364 0.228 0.754 0.228 1.148s-0.078 0.784-0.228 1.148c-0.151 0.364-0.372 0.695-0.65 0.973l-4.479 4.48z"></path>
</symbol>
<symbol id="search-dollar" viewBox="0 0 32 32">
<path fill="#1bc55f" style="fill: var(--color1, #1bc55f)" d="M28.897 25.959l-5.32-5.319c-0.24-0.24-0.566-0.373-0.907-0.373h-0.87c1.473-1.883 2.348-4.252 2.348-6.829 0-6.13-4.968-11.097-11.098-11.097s-11.099 4.967-11.099 11.097c0 6.13 4.968 11.096 11.099 11.096 2.577 0 4.946-0.875 6.83-2.348v0.87c0 0.341 0.133 0.667 0.373 0.907l5.32 5.319c0.502 0.502 1.312 0.502 1.809 0l1.51-1.51c0.502-0.502 0.502-1.312 0.005-1.814zM13.050 21.12c-4.244 0-7.683-3.433-7.683-7.682 0-4.243 3.433-7.682 7.683-7.682 4.244 0 7.683 3.433 7.683 7.682 0 4.243-3.433 7.682-7.683 7.682zM14.496 12.981l-2.401-0.72c-0.275-0.083-0.468-0.362-0.468-0.679 0-0.388 0.283-0.704 0.63-0.704h1.5c0.243 0 0.478 0.069 0.684 0.198 0.173 0.108 0.393 0.102 0.54-0.039l0.627-0.598c0.188-0.18 0.178-0.491-0.030-0.648-0.486-0.364-1.071-0.575-1.674-0.606v-0.869c0-0.236-0.191-0.427-0.427-0.427h-0.854c-0.236 0-0.427 0.191-0.427 0.427v0.86c-1.261 0.034-2.277 1.096-2.277 2.405 0 1.065 0.693 2.017 1.685 2.315l2.401 0.72c0.275 0.083 0.468 0.362 0.468 0.679 0 0.388-0.283 0.704-0.63 0.704h-1.499c-0.243 0-0.478-0.069-0.684-0.198-0.173-0.108-0.393-0.102-0.54 0.039l-0.627 0.598c-0.188 0.18-0.178 0.491 0.030 0.648 0.486 0.364 1.071 0.575 1.674 0.606v0.869c0 0.236 0.191 0.427 0.427 0.427h0.854c0.236 0 0.427-0.191 0.427-0.427v-0.86c1.261-0.034 2.277-1.096 2.277-2.405 0-1.065-0.693-2.017-1.685-2.315z"></path>
</symbol>
<symbol id="skill-level-intermediate" viewBox="0 0 32 32">
<path fill="#1bc55f" style="fill: var(--color1, #1bc55f)" d="M30 30h-8v-26h8v26zM24 28h4v-22h-4v22z"></path>
<path fill="#1bc55f" style="fill: var(--color1, #1bc55f)" d="M20 30h-8v-18h8v18z"></path>
<path fill="#1bc55f" style="fill: var(--color1, #1bc55f)" d="M10 30h-8v-12h8v12z"></path>
</symbol>
</defs>
</svg>
